<?xml version="1.0" standalone="no"?><!DOCTYPE svg PUBLIC "-//W3C//DTD SVG 1.1//EN" "http://www.w3.org/Graphics/SVG/1.1/DTD/svg11.dtd"><svg t="1692414734244" class="icon" viewBox="0 0 1024 1024" version="1.1" xmlns="http://www.w3.org/2000/svg" p-id="1611" width="32" height="32" xmlns:xlink="http://www.w3.org/1999/xlink"><path d="M473.1 693.6h-22.6c-3.9 0-5.7 1.4-7.1 4-0.6 1.1-17.5 34.2-17.5 34.2-1.3 2.8-3.9 2.6-5 0 0 0-14.9-31.4-15.7-33-1.7-3.4-4.5-5.2-8.8-5.2h-21.8c-1.2 0-1.4 0.8-1.1 1.6 0.3 0.8 33.7 73.1 33.7 73.1s-16.7 32.4-17.2 33.3c-1.7 3.4 0.5 5.8 3.7 5.8h23.9l57.1-111.3c0.5-1.1 0.2-2.5-1.6-2.5z m290.8 0h-22.6c-3.9 0-5.7 1.4-7.1 4-0.6 1.1-17.5 34.2-17.5 34.2-1.3 2.8-4 2.6-5 0 0 0-14.9-31.4-15.7-33-1.7-3.4-4.5-5.2-8.8-5.2h-21.8c-1.2 0-1.5 0.8-1.1 1.6 0.3 0.8 33.7 73.1 33.7 73.1s-16.7 32.4-17.1 33.3c-1.7 3.4 0.4 5.8 3.7 5.8h23.9s56.5-110.1 57.1-111.3c0.4-1.1 0-2.5-1.7-2.5z m80.1 8.2c-8.6-7.5-20.5-11.2-35.7-11.2-15.2 0-26.6 3.9-35 11.4-8 7.1-12.5 18.4-12.5 27.8 0 11.5 4.8 21.5 12.1 27.9 8.4 7.5 21.3 11.2 35.5 11.2 15.2 0 26.8-3.9 35.4-11.4 8-7.1 12.4-18.8 12.4-27.8-0.2-11.5-4.2-20.8-12.2-27.9z m-20.5 35.3c-7.1 13.5-16.2 19.1-26.8 14.8-10.4-4.3-11.6-14.8-3.7-29.5 7.4-13.9 16.6-19.3 26.8-14.9 10.4 4.6 11.5 14.8 3.7 29.6z m-270-35.3c-8.6-7.5-20.5-11.2-35.7-11.2-15.2 0-26.6 3.9-35 11.4-8 7.1-12.5 18.4-12.5 27.8 0 11.5 4.8 21.5 12.1 27.9 8.4 7.5 21.3 11.2 35.5 11.2 15.2 0 26.8-3.9 35.4-11.4 8-7.1 12.4-18.8 12.4-27.8-0.2-11.5-4.2-20.8-12.2-27.9zM533 737.1c-7.1 13.5-16.2 19.1-26.8 14.8-10.4-4.3-11.6-14.8-3.7-29.5 7.4-13.9 16.5-19.3 26.8-14.9 10.3 4.6 11.4 14.8 3.7 29.6z m44.8-39.7c-3 1-5.2 3.7-5.2 7.5V767l0.2 0.1v-0.1H599c2.7 0 4.2-1.7 4.2-4.2v-53.5c17.8-4.7 29.2 0.2 29.2 7.8V763c0 2.4 1.3 4 4.1 4h26.3v-48.6c0-24.5-31.3-36.2-85-21z m375.4-3.8H927c-2.7 0-4.2 1.7-4.2 4.2v53.5c-17.8 4.7-29.2-0.2-29.2-7.8v-45.9c0-2.4-1.3-4-4.1-4h-26.3v48.6c0 24.5 31.3 36.1 85.1 21 3-1 5.2-3.7 5.2-7.5v-62.1h-0.3z" fill="#717070" p-id="1612"></path><path d="M460.4 237.9H109c-10.1 0.4-21.1 5.9-21.1 20v170c0 95.1-16.5 155.4-23.5 176.9l-0.2 0.4c-0.3 1-1.1 5.9 1.8 9.5 1.2 1.5 3.5 3.3 7.4 3.3h44.7c9.3 0 14-6.8 15.2-8.8l0.2-0.4c10.3-21.7 15.3-63.8 19.8-103.3h97.3v80.3c0 8.1 6.7 10.5 10.8 10.5h50.5l1.2-0.1c3.9-0.4 8.5-3.3 8.5-10.5V506h96.1v56.4c0 0.9 0 2.7-2.6 2.7H385c-9.7 0-11.8 6-11.8 11v30.4c0 7.5 6.1 11.4 12.1 11.4 0.4 0 0.8 0 1.2-0.1h82.8c0.5 0 5.4 0 10.3-2.8 4.7-2.7 10.2-8.2 10.2-19.7V266.5c-0.2-26.4-14-28.6-29.4-28.6z m-295.6 54.5h86c0 0.1-0.1 52.5 0 52.6h-95.4v-41c-0.1 0-1.1-11.6 9.4-11.6z m85.9 162c-0.2 0.7 0-2.7 0-2.5h-95.3v-53.1h95.3c0.1 0.2 0 55.6 0 55.6z m71.1-162h85.1c6.8 0 11 2.8 11 10.9v41.6h-96.1v-52.5z m97.7 159.5h-97.7v-53.1h97.7v53.1z m529.3-192H681c1.7-18.3 2.3-29.2 2.3-29.2 0.9-5.1-0.7-8.2-2.3-10-3.3-3.9-8.5-4.1-9-4.1h-45.5c-8.8 0-12.3 6.6-12.9 10.1 0 0-0.6 12.5-2.4 33.2h-69.8c-6.2 0-11.2 5-11.2 11.2v31.4c0 6.2 5 11.2 11.2 11.2h64.3c-10.1 85.8-32.1 214.3-77.1 286.7-1.4 2.3-3.6 8.5-0.7 13.2 1.2 1.9 3.6 4.2 8.8 4.3h44.6c2.8-0.1 12.1-1.2 18-10.2l0.8-1.3c0.1-0.2 0.3-0.4 0.3-0.6 29.1-51.2 48.6-128.8 61.3-200.2h177.6c2.4 0 6.5-0.3 6.5 6.4 0 11.4-21 41.5-48.8 71.9-14-14.5-27-30.2-38.8-47.1-3.2-4.5-8.5-4.5-8.5-4.5h-61.9c-5.7 0-6.2 3.8-5.1 6.5 19.8 35.8 44 65.8 68 90-16.9 14.3-33.7 25.8-48 31.7-7.1 2.9-17 4.5-22.6 4.5h-13.4c-8.7 0-10.5 5.2-10.5 11.7V608c0 7.8 3.8 9.7 10 9.7H697c11 0 24.4-2.8 35.3-7.9 17.9-8.3 40.2-22.8 63.2-41.1 37.9 29.5 65.8 41.7 58.7 36.9-3.6-2.3 23.2 13.9 59.2 13.9h28.8c5.3 0 11.1-3 11.1-9.8v-35.4c0-6.6-4.3-8.4-8.8-8.4h-4.8c-29.3 0-37.6-5-48.8-9.5-16.1-8.9-32-19.2-47.3-30.8 45.5-46 83.6-101.2 83.6-145.8 0-20.6-16.8-27.9-33.1-27.9H670.3c1.8-12.7 3.5-25.4 5-38.1h273.5c6.2 0 11.2-5 11.2-11.2v-31.4c0-6.3-5-11.3-11.2-11.3z" fill="#E40012" p-id="1613"></path></svg>