<?xml version="1.0" encoding="UTF-8"?>
<svg version="1.1" xmlns="http://www.w3.org/2000/svg" width="32" height="32">
<path d="M0 0 C3.92061103 2.19278684 6.97809862 4.95619724 9 9 C9.0960207 10.65536064 9.13074554 12.31451436 9.1328125 13.97265625 C9.13474609 15.44508789 9.13474609 15.44508789 9.13671875 16.94726562 C9.13285156 17.97529297 9.12898438 19.00332031 9.125 20.0625 C9.13080078 21.6103418 9.13080078 21.6103418 9.13671875 23.18945312 C9.13542969 24.16978516 9.13414063 25.15011719 9.1328125 26.16015625 C9.13168457 27.06386963 9.13055664 27.96758301 9.12939453 28.89868164 C9 31 9 31 8 32 C4.49067117 32.392915 0.96568811 32.41852805 -2.5625 32.5 C-3.54025391 32.55414063 -4.51800781 32.60828125 -5.52539062 32.6640625 C-11.09771465 32.7685669 -14.34963862 32.29632331 -18.65234375 28.59375 C-22.69174185 24.59116325 -23.2556342 22.08094153 -23.5 16.375 C-23.48923571 11.13817235 -23.11542638 8.16311014 -19.625 4.1875 C-13.96875828 -1.27088964 -7.58872681 -1.045005 0 0 Z M-14 9 C-16.49040942 11.49040942 -16.32391014 12.43154357 -16.375 15.875 C-16.29325862 19.20716336 -16.19680699 20.67723654 -14.4375 23.5625 C-9.14616898 26.68302855 -2.95868818 26.10453839 3 26 C3.08160748 24.10489301 3.13946459 22.20875496 3.1875 20.3125 C3.22230469 19.25675781 3.25710937 18.20101563 3.29296875 17.11328125 C2.96183033 13.59438368 2.08578821 11.82078024 0 9 C-5.25318142 5.09378818 -8.68633782 5.3643364 -14 9 Z M-19 15 C-19 15.66 -19 16.32 -19 17 C-18.34 17 -17.68 17 -17 17 C-17 16.34 -17 15.68 -17 15 C-17.66 15 -18.32 15 -19 15 Z " fill="#0D6EFD" transform="translate(23,0)"/>
<path d="M0 0 C2.9375 0.8125 2.9375 0.8125 4.9375 3.8125 C4.75 6.875 4.75 6.875 3.9375 9.8125 C0.9375 11.8125 0.9375 11.8125 -2.125 11.625 C-5.0625 10.8125 -5.0625 10.8125 -7.0625 7.8125 C-6.875 4.75 -6.875 4.75 -6.0625 1.8125 C-3.0625 -0.1875 -3.0625 -0.1875 0 0 Z " fill="#0D6EFD" transform="translate(17.0625,10.1875)"/>
</svg>
